<svg viewBox="0 0 196 57" xmlns="http://www.w3.org/2000/svg"><path d="M23.18 29.18C22.36 21.77 30.12 15.84 40.51 15.92C50.89 16 59.97 22.06 60.78 29.46C61.59 36.87 53.84 42.8 43.46 42.72C33.08 42.65 24 36.58 23.19 29.19M62.72 31.48C61.78 22.3 51.34 14.78 39.38 14.68C27.42 14.58 18.5 21.94 19.44 31.12C20.38 40.3 30.83 47.82 42.78 47.92C54.73 48.02 63.66 40.66 62.72 31.48Z" fill="#FBB584"/><path d="M44.67 48.1C38.78 54.26 29.34 54.77 23.57 49.24C17.8 43.72 17.9 34.26 23.79 28.11C29.68 21.96 39.13 21.45 44.89 26.97C50.65 32.49 50.56 41.95 44.67 48.1ZM22.86 27.92C16.02 35.06 15.9 46.06 22.61 52.48C29.32 58.89 40.3 58.3 47.14 51.15C53.99 44 54.1 33.01 47.39 26.59C40.69 20.18 29.7 20.77 22.86 27.92Z" fill="#F89B6C"/><path d="M23.49 4.9C35.74 0.31 47.84 4.96 50.53 15.27C53.23 25.58 45.48 37.67 33.23 42.25C20.98 46.85 8.88 42.2 6.19 31.89C3.5 21.57 11.25 9.49 23.49 4.9ZM12.12 8.84C-0.590001 18.89 -3.82 33.47 4.89 41.38C13.6 49.3 30.96 47.56 43.66 37.51C56.36 27.46 59.6 12.88 50.88 4.97C42.17 -2.95 24.82 -1.22 12.12 8.84Z" fill="#F37321"/><path d="M85.87 22.23H71.3V19.9H85.87V22.23ZM78.58 32.47C76.74 32.47 75.24 32.01 74.08 31.08C72.92 30.15 72.35 29.04 72.35 27.73C72.35 26.42 72.93 25.34 74.08 24.41C75.23 23.48 76.73 23.02 78.58 23.02C80.43 23.02 81.92 23.48 83.08 24.41C84.23 25.34 84.81 26.45 84.81 27.73C84.81 29.01 84.23 30.14 83.08 31.08C81.92 32.01 80.43 32.47 78.58 32.47ZM79.69 37.83H92.28V40.32H78.9C76.01 40.32 74.57 38.97 74.57 36.28V33.68H77.82V35.9C77.82 37.18 78.44 37.82 79.69 37.82V37.83ZM74.84 16.7H82.32V19.06H74.84V16.7ZM78.58 30.19C79.43 30.19 80.15 29.96 80.76 29.49C81.36 29.02 81.67 28.43 81.67 27.73C81.67 27.03 81.37 26.47 80.76 26C80.15 25.53 79.43 25.3 78.58 25.3C77.73 25.3 77 25.54 76.4 26C75.8 26.47 75.49 27.05 75.49 27.73C75.49 28.41 75.79 29.02 76.4 29.49C77 29.96 77.73 30.19 78.58 30.19ZM92.18 23.07H95.54V25.62H92.18V33.83H88.96V17.12H92.18V23.08V23.07Z" fill="#000500"/><path d="M103.99 32.34C102.83 32.14 101.85 31.71 101.04 31.04C99.92 30.12 99.36 29.02 99.36 27.74C99.36 26.46 99.94 25.35 101.09 24.42C102.24 23.49 103.74 23.03 105.59 23.03C107.44 23.03 108.93 23.49 110.09 24.42C111.24 25.35 111.82 26.46 111.82 27.74C111.82 29.02 111.26 30.12 110.14 31.04C109.35 31.69 108.38 32.12 107.24 32.34V34.81H110.84C114.09 34.81 115.72 33.56 115.72 31.04V17.12H118.94V24.92H122.3V27.49H118.94V40.38H115.72V36.02C114.74 36.89 113.3 37.32 111.39 37.32H97.74V34.8H104V32.33L103.99 32.34ZM112.82 22.24H98.25V19.91H112.82V22.24ZM101.85 16.71H109.33V19.07H101.85V16.71ZM105.59 30.2C106.44 30.2 107.16 29.97 107.77 29.5C108.37 29.03 108.68 28.44 108.68 27.74C108.68 27.04 108.38 26.48 107.77 26.01C107.16 25.54 106.44 25.31 105.59 25.31C104.74 25.31 104.01 25.55 103.41 26.01C102.8 26.48 102.5 27.06 102.5 27.74C102.5 28.42 102.8 29.03 103.41 29.5C104.01 29.97 104.74 30.2 105.59 30.2Z" fill="#000500"/><path d="M138.42 35.05H129.73C126.86 35.05 125.42 33.62 125.42 30.77V17.5H128.62V23.13H135.26V17.5H138.43V35.05H138.42ZM135.25 32.53V25.6H128.61V30.58C128.61 31.88 129.2 32.53 130.37 32.53H135.25ZM142.4 40.39V17.12H145.65V40.39H142.4Z" fill="#000500"/><path d="M157.41 26.38C156.98 27.16 156.44 27.84 155.81 28.44C154.08 30.08 152.07 31.09 149.8 31.45V28.98C151.34 28.64 152.68 27.76 153.84 26.35C155.03 24.89 155.68 22.76 155.79 19.96H150.35V17.5H164.49V19.96H159.05C159.16 22.76 159.81 24.89 161 26.35C162.16 27.76 163.5 28.63 165.04 28.98V31.45C162.76 31.09 160.76 30.09 159.03 28.44C158.4 27.84 157.87 27.16 157.43 26.38H157.41ZM159.28 37.81H171.88V40.33H158.5C155.61 40.33 154.17 38.98 154.17 36.29V32.69H157.42V35.89C157.42 37.17 158.04 37.81 159.29 37.81H159.28ZM168.38 17.12H171.6V33.83H168.38V24.78H163.1V22.23H168.38V17.11V17.12Z" fill="#000500"/></svg>