<svg width="200" height="21" viewBox="0 0 200 21" fill="none" xmlns="http://www.w3.org/2000/svg">
<g clip-path="url(#clip0_59_278)">
<path d="M27.831 2.03255C28.8737 3.05425 29.3912 4.29489 29.3912 5.75831V15.2417C29.3912 16.7013 28.8699 17.9457 27.831 18.9674C26.7883 19.9891 25.5309 20.5 24.0512 20.5H5.27869C3.82197 20.5 2.57609 19.9891 1.54489 18.9674C0.513686 17.9457 0 16.7051 0 15.2417V5.75831C0 4.29873 0.513686 3.05809 1.54489 2.03255C2.57609 1.01085 3.82197 0.5 5.27869 0.5H24.0512C25.5309 0.5 26.7883 1.01085 27.831 2.03255ZM21.801 5.47791H7.55961V15.5221H21.8048V5.47791H21.801Z" fill="#F4F6FA"/>
<path d="M54.5351 5.47791H40.2286V20.5H32.6996L32.6689 8.66977V5.47791L32.6996 0.5H56.8467C58.2842 0.5 59.5186 1.01085 60.546 2.03255C61.5772 3.05425 62.0909 4.29489 62.0909 5.75831V20.5H54.4699L54.5312 5.47791H54.5351Z" fill="#F4F6FA"/>
<path d="M94.6409 0.5V8.60448C94.5374 9.77213 94.0007 10.8591 93.0308 11.8578C92.0609 12.8603 90.8189 13.3596 89.297 13.3596H84.1103V20.4962H75.9258V13.2982L70.8043 13.3289C69.2441 13.3289 67.9254 12.818 66.852 11.7963C65.7786 10.7746 65.2419 9.54168 65.2419 8.10131V0.5H73.2999V8.66977H86.5446V0.5H94.6332H94.6409Z" fill="#F4F6FA"/>
<path d="M105.229 15.5221H119.505L126.968 15.4914L127.06 20.5H102.913C101.476 20.5 100.241 19.9891 99.2141 18.9674C98.1829 17.9457 97.6692 16.7051 97.6692 15.2417V5.75831C97.6692 4.29873 98.1829 3.05809 99.2141 2.03255C100.245 1.01085 101.48 0.5 102.913 0.5H127.06L126.968 5.47791H105.229V15.5221Z" fill="#F4F6FA"/>
<path d="M158.112 2.03255C159.154 3.05425 159.672 4.29489 159.672 5.75831V15.2417C159.672 16.7013 159.15 17.9457 158.112 18.9674C157.069 19.9891 155.811 20.5 154.332 20.5H135.559C134.102 20.5 132.857 19.9891 131.825 18.9674C130.794 17.9457 130.281 16.7051 130.281 15.2417V5.75831C130.281 4.29873 130.794 3.05809 131.825 2.03255C132.857 1.01085 134.099 0.5 135.559 0.5H154.332C155.811 0.5 157.069 1.01085 158.112 2.03255ZM152.085 5.47791H137.844V15.5221H152.085V5.47791Z" fill="#F4F6FA"/>
<path d="M198.467 2.03255C199.486 3.05425 199.996 4.29489 199.996 5.75447V20.4846H192.429V5.46255H185.237V20.4846H177.689V5.46255H170.498V20.4846H162.949V0.5H194.779C196.216 0.5 197.443 1.01085 198.463 2.03255H198.467Z" fill="#F4F6FA"/>
</g>
<defs>
<clipPath id="clip0_59_278">
<rect width="200" height="20" fill="white" transform="translate(0 0.5)"/>
</clipPath>
</defs>
</svg>
