<svg width="1444" height="1004" viewBox="0 0 1444 1004" fill="none" xmlns="http://www.w3.org/2000/svg">
<g clip-path="url(#paint0_diamond_172_525_clip_path)" data-figma-skip-parse="true"><g transform="matrix(1.1935 0.815803 -1.17476 1.25546 109 90.4606)"><rect x="0" y="0" width="1120.03" height="488.069" fill="url(#paint0_diamond_172_525)" opacity="1" shape-rendering="crispEdges"/><rect x="0" y="0" width="1120.03" height="488.069" transform="scale(1 -1)" fill="url(#paint0_diamond_172_525)" opacity="1" shape-rendering="crispEdges"/><rect x="0" y="0" width="1120.03" height="488.069" transform="scale(-1 1)" fill="url(#paint0_diamond_172_525)" opacity="1" shape-rendering="crispEdges"/><rect x="0" y="0" width="1120.03" height="488.069" transform="scale(-1)" fill="url(#paint0_diamond_172_525)" opacity="1" shape-rendering="crispEdges"/></g></g><path d="M32 2V3.5H1412V2V0.5H32V2ZM1442 32H1440.5V972H1442H1443.5V32H1442ZM1412 1002V1000.5H32V1002V1003.5H1412V1002ZM2 972H3.5V32H2H0.5V972H2ZM32 1002V1000.5C16.2599 1000.5 3.5 987.74 3.5 972H2H0.5C0.5 989.397 14.603 1003.5 32 1003.5V1002ZM1442 972H1440.5C1440.5 987.74 1427.74 1000.5 1412 1000.5V1002V1003.5C1429.4 1003.5 1443.5 989.397 1443.5 972H1442ZM1412 2V3.5C1427.74 3.5 1440.5 16.2599 1440.5 32H1442H1443.5C1443.5 14.603 1429.4 0.5 1412 0.5V2ZM32 2V0.5C14.603 0.5 0.5 14.603 0.5 32H2H3.5C3.5 16.2599 16.2599 3.5 32 3.5V2Z" data-figma-gradient-fill="{&#34;type&#34;:&#34;GRADIENT_DIAMOND&#34;,&#34;stops&#34;:[{&#34;color&#34;:{&#34;r&#34;:0.0,&#34;g&#34;:0.10588235408067703,&#34;b&#34;:0.32941177487373352,&#34;a&#34;:1.0},&#34;position&#34;:0.0},{&#34;color&#34;:{&#34;r&#34;:0.0,&#34;g&#34;:0.7294117808341980,&#34;b&#34;:0.69294118881225586,&#34;a&#34;:1.0},&#34;position&#34;:1.0}],&#34;stopsVar&#34;:[{&#34;color&#34;:{&#34;r&#34;:0.0,&#34;g&#34;:0.10588235408067703,&#34;b&#34;:0.32941177487373352,&#34;a&#34;:1.0},&#34;position&#34;:0.0},{&#34;color&#34;:{&#34;r&#34;:0.0,&#34;g&#34;:0.7294117808341980,&#34;b&#34;:0.69294118881225586,&#34;a&#34;:1.0},&#34;position&#34;:1.0}],&#34;transform&#34;:{&#34;m00&#34;:2387.0,&#34;m01&#34;:-2349.512207031250,&#34;m02&#34;:90.255989074707031,&#34;m10&#34;:1631.6055908203125,&#34;m11&#34;:2510.9235839843750,&#34;m12&#34;:-1980.8040771484375},&#34;opacity&#34;:1.0,&#34;blendMode&#34;:&#34;NORMAL&#34;,&#34;visible&#34;:true}"/>
<defs>
<clipPath id="paint0_diamond_172_525_clip_path"><path d="M32 2V3.5H1412V2V0.5H32V2ZM1442 32H1440.5V972H1442H1443.5V32H1442ZM1412 1002V1000.5H32V1002V1003.5H1412V1002ZM2 972H3.5V32H2H0.5V972H2ZM32 1002V1000.5C16.2599 1000.5 3.5 987.74 3.5 972H2H0.5C0.5 989.397 14.603 1003.5 32 1003.5V1002ZM1442 972H1440.5C1440.5 987.74 1427.74 1000.5 1412 1000.5V1002V1003.5C1429.4 1003.5 1443.5 989.397 1443.5 972H1442ZM1412 2V3.5C1427.74 3.5 1440.5 16.2599 1440.5 32H1442H1443.5C1443.5 14.603 1429.4 0.5 1412 0.5V2ZM32 2V0.5C14.603 0.5 0.5 14.603 0.5 32H2H3.5C3.5 16.2599 16.2599 3.5 32 3.5V2Z"/></clipPath><linearGradient id="paint0_diamond_172_525" x1="0" y1="0" x2="500" y2="500" gradientUnits="userSpaceOnUse">
<stop stop-color="#001B54"/>
<stop offset="1" stop-color="#00BAB1"/>
</linearGradient>
</defs>
</svg>
