<?xml version="1.0" encoding="utf-8"?>
<!-- Generator: Adobe Illustrator 26.3.1, SVG Export Plug-In . SVG Version: 6.00 Build 0)  -->
<svg version="1.1" id="레이어_1" xmlns="http://www.w3.org/2000/svg" xmlns:xlink="http://www.w3.org/1999/xlink" x="0px"
	 y="0px" viewBox="0 0 258 36" style="enable-background:new 0 0 258 36;" xml:space="preserve">
<g>
	<path d="M4.3,19.1l8.3,10.2l2.4-1.9l-7-8.5l6.1-7.7l-2.5-1.8L4.3,19.1z M-0.1,2.2v26.7h3.1V1.5L-0.1,2.2z M17.8,23.8
		c0-0.8,0.1-1.6,0.4-2.4s0.8-1.4,1.5-1.9c1.6-1.1,3.6-1.6,5.5-1.5h3.6v-1.2c0-2.9-1.3-4.3-3.8-4.4c-0.9,0-1.7,0.1-2.6,0.3
		s-1.7,0.5-2.5,0.9L19,11.3c1-0.5,2-0.9,3-1.2c1-0.3,2.1-0.4,3.2-0.4c4.4,0,6.6,2.4,6.6,7.1v12.1h-2.3l-0.3-2.1
		c-0.9,0.7-1.9,1.3-3,1.8c-1,0.4-2,0.6-3,0.6c-0.7,0-1.4-0.1-2.1-0.3c-0.7-0.2-1.3-0.6-1.8-1.1c-0.5-0.5-0.9-1.1-1.1-1.8
		C17.9,25.2,17.7,24.5,17.8,23.8 M23.7,26.6c0.5,0,0.9-0.1,1.3-0.2c0.5-0.1,0.9-0.3,1.4-0.5c0.5-0.2,0.9-0.4,1.3-0.7
		c0.4-0.2,0.7-0.5,1.1-0.8V20h-3.2c-1.3,0-2.6,0.3-3.6,0.9c-0.4,0.3-0.7,0.8-0.9,1.2c-0.2,0.5-0.3,1-0.2,1.5
		C20.9,25.6,21.8,26.6,23.7,26.6 M40.6,28.8h-3.1V2.2l3.1-0.7V28.8z M49,9.5l2.5,1.8L45.4,19l7,8.5L50,29.3l-8.3-10.2L49,9.5z
		 M55.2,23.8c0-0.8,0.1-1.6,0.4-2.4c0.3-0.8,0.8-1.4,1.5-1.9c1.6-1.1,3.6-1.7,5.6-1.6h3.6v-1.2c0-2.9-1.3-4.4-3.8-4.4
		c-0.9,0-1.7,0.1-2.6,0.3c-0.9,0.2-1.7,0.5-2.5,0.9l-0.9-2.2c0.9-0.5,1.9-0.9,3-1.2c1-0.3,2.1-0.4,3.2-0.4c4.4,0,6.6,2.4,6.6,7.1
		v12.1H67l-0.4-2.1c-0.9,0.7-1.9,1.3-3,1.8c-1,0.4-2,0.7-3.1,0.7c-0.7,0-1.4-0.1-2.1-0.3c-0.7-0.2-1.3-0.6-1.8-1.1
		c-0.5-0.5-0.9-1.2-1.1-1.8C55.3,25.2,55.2,24.5,55.2,23.8 M61.1,26.6c0.5,0,0.9-0.1,1.3-0.2c0.5-0.1,0.9-0.3,1.4-0.5
		c0.5-0.2,0.9-0.4,1.3-0.7c0.4-0.2,0.7-0.5,1.1-0.8V20H63c-1.3-0.1-2.5,0.2-3.6,0.9c-0.4,0.3-0.7,0.8-0.9,1.2
		c-0.2,0.5-0.3,1-0.2,1.5C58.3,25.6,59.3,26.6,61.1,26.6 M82,9.7c1.1-0.1,2.3,0.1,3.4,0.6c1.1,0.4,2,1.1,2.8,2
		c1.5,1.7,2.2,4.1,2.2,7.3s-0.7,5.6-2.2,7.2c-1.6,1.6-3.8,2.5-6.1,2.5c-2.3,0-4.5-0.9-6.1-2.5c-1.5-1.7-2.2-4.1-2.2-7.2
		s0.7-5.6,2.2-7.3c0.8-0.9,1.7-1.5,2.8-2C79.7,9.8,80.9,9.6,82,9.7 M82,12.2c-0.7,0-1.5,0.1-2.1,0.4c-0.7,0.3-1.2,0.8-1.6,1.4
		c-1,1.6-1.4,3.5-1.3,5.4c-0.1,1.9,0.3,3.8,1.3,5.4c0.4,0.6,1,1.1,1.7,1.4s1.4,0.5,2.1,0.4c0.7,0,1.5-0.1,2.1-0.4
		c0.7-0.3,1.2-0.8,1.7-1.4c1-1.6,1.4-3.5,1.3-5.4c0.1-1.9-0.3-3.8-1.3-5.4c-0.4-0.6-1-1.1-1.7-1.4C83.5,12.3,82.7,12.2,82,12.2"/>
	<path d="M110.8,18.6c0,0.7-0.1,1.4-0.2,2.2H99.3c0.2,3,1.8,4.6,5.2,4.6c1.7-0.1,3.3-0.4,4.8-1.1l1.1,3.2c-2,1-4.2,1.6-6.5,1.6
		c-6.4,0-9.5-3.4-9.5-10c0-6.3,3.2-10,8.5-10C108.1,9.1,110.8,12.6,110.8,18.6z M99.2,17.6h6.9c0-3.2-1-4.7-3.4-4.7
		C100.5,12.8,99.3,14.5,99.2,17.6L99.2,17.6z M114.1,9.7h3.4l0.7,1.9c1.7-1.5,3.8-2.4,6.1-2.5c4.2,0,6.4,2.6,6.4,7.4v12.1h-4.8V16.4
		c0-2.2-0.8-3-3.4-3c-1.2,0-2.4,0.2-3.6,0.7v14.6h-4.8L114.1,9.7z M133,10.1l3-0.4V5.9l4.9-1.1v4.9h5.7v3.6h-5.7v8.3
		c0,3,0.8,3.5,2.2,3.5c1.1,0,2.1-0.3,3.1-0.6l1.1,3.4c-1.7,0.9-3.6,1.4-5.5,1.4c-4,0-5.8-2.4-5.8-7.3v-8.6h-3V10.1z M165.4,18.6
		c0,0.7-0.1,1.4-0.2,2.2h-11.3c0.1,3,1.8,4.6,5.2,4.6c1.7-0.1,3.3-0.4,4.8-1.1l1.1,3.2c-2,1-4.2,1.6-6.5,1.6c-6.4,0-9.5-3.4-9.5-10
		c0-6.3,3.2-10,8.5-10C162.7,9.1,165.4,12.6,165.4,18.6z M153.8,17.6h6.9c0-3.2-1-4.7-3.4-4.7C155.1,12.8,153.9,14.5,153.8,17.6
		L153.8,17.6z M173.3,14.4v14.3h-4.8v-19h3.4l0.8,2.1c0.8-0.8,1.7-1.5,2.7-1.9c1-0.5,2.1-0.7,3.2-0.7c0.5,0,1.1,0,1.6,0.2l-0.5,4.7
		C177.6,13.5,175.3,13.6,173.3,14.4L173.3,14.4z M187.3,28.8V36h-4.8V9.7h3.4l0.6,1.6c0.7-0.7,1.5-1.3,2.5-1.6
		c0.9-0.4,1.9-0.5,2.9-0.5c5,0,7.2,3.7,7.2,9.7c0,6.3-3.6,10.4-8.7,10.4C189.3,29.2,188.3,29.1,187.3,28.8z M187.3,13.7v11.8
		c0.6,0.1,1.1,0.1,1.7,0.1c3.8,0,5.2-2.6,5.2-6.7c0-3.5-0.8-5.8-4-5.8C189.3,13.1,188.3,13.3,187.3,13.7L187.3,13.7z M207.5,14.4
		v14.3h-4.8v-19h3.5l0.8,2.1c1.5-1.6,3.7-2.6,5.9-2.7c0.5,0,1.1,0,1.6,0.2L214,14c-0.9-0.2-1.8-0.3-2.8-0.3
		C209.9,13.7,208.7,14,207.5,14.4L207.5,14.4z M215.6,3.6l3.5-3.6l3.5,3.6l-3.5,3.5L215.6,3.6z M221.6,9.7v18.9h-4.9V9.7H221.6z
		 M233.8,17.6c3.9,1.4,5.3,2.9,5.3,5.7c0,3.8-2.5,6-7.3,6c-2.4,0-4.8-0.5-7-1.4l1-3.7c1.9,0.8,3.9,1.2,6,1.3c2,0,2.7-0.7,2.7-1.8
		s-0.5-1.7-3.7-2.8c-3.9-1.3-5.3-2.7-5.3-5.9c0-3.4,2.8-5.8,7-5.8c2.2,0,4.5,0.5,6.5,1.4l-1.3,3.4c-1.5-0.7-3.1-1.1-4.7-1.1
		c-1.8,0-2.8,0.8-2.8,2S231,16.6,233.8,17.6z M258,18.6c0,0.7-0.1,1.4-0.2,2.2h-11.3c0.1,3,1.8,4.6,5.2,4.6c1.7-0.1,3.3-0.4,4.8-1.1
		l1.1,3.2c-2,1-4.2,1.6-6.5,1.6c-6.4,0-9.5-3.4-9.5-10c0-6.3,3.2-10,8.5-10C255.2,9.1,258,12.6,258,18.6z M246.3,17.6h6.9
		c0-3.2-1-4.7-3.4-4.7C247.6,12.8,246.4,14.5,246.3,17.6L246.3,17.6z"/>
</g>
</svg>
