<?xml version="1.0" encoding="UTF-8"?>
<svg id="Layer_1" data-name="Layer 1" xmlns="http://www.w3.org/2000/svg" viewBox="0 0 1275.59 708.66">
  <defs>
    <style>
      .cls-1 {
        fill: #fff;
      }
    </style>
  </defs>
  <rect class="cls-1" width="1275.59" height="708.66"/>
  <g>
    <path class="cls-1" d="M448.26,335.3c2.72,2.66,4.07,5.89,4.07,9.7v24.69c0,3.8-1.36,7.04-4.07,9.7-2.72,2.66-6,3.99-9.86,3.99h-48.97c-3.8,0-7.05-1.33-9.74-3.99-2.69-2.66-4.03-5.89-4.03-9.7v-24.69c0-3.8,1.34-7.03,4.03-9.7,2.69-2.66,5.94-3.99,9.74-3.99h48.97c3.86,0,7.14,1.33,9.86,3.99ZM432.53,344.26h-37.16v26.15h37.16v-26.15Z"/>
    <path class="cls-1" d="M517.92,344.26h-37.32v39.11h-19.64l-.08-30.8v-8.31l.08-12.96h62.99c3.75,0,6.97,1.33,9.65,3.99,2.69,2.66,4.03,5.89,4.03,9.7v38.38h-19.88l.16-39.11Z"/>
    <path class="cls-1" d="M622.54,331.31v21.1c-.27,3.04-1.67,5.87-4.2,8.47-2.53,2.61-5.77,3.91-9.74,3.91h-13.53v18.58h-21.35v-18.74l-13.36.08c-4.07,0-7.51-1.33-10.31-3.99-2.8-2.66-4.2-5.87-4.2-9.62v-19.8h21.02v21.27h34.55v-21.27h21.1Z"/>
    <path class="cls-1" d="M650.16,370.42h37.24l19.47-.08.24,13.04h-62.99c-3.75,0-6.97-1.33-9.65-3.99-2.69-2.66-4.03-5.89-4.03-9.7v-24.69c0-3.8,1.34-7.03,4.03-9.7,2.69-2.66,5.91-3.99,9.65-3.99h62.99l-.24,12.96h-56.71v26.15Z"/>
    <path class="cls-1" d="M788.11,335.3c2.72,2.66,4.07,5.89,4.07,9.7v24.69c0,3.8-1.36,7.04-4.07,9.7-2.72,2.66-6,3.99-9.86,3.99h-48.97c-3.8,0-7.05-1.33-9.74-3.99-2.69-2.66-4.03-5.89-4.03-9.7v-24.69c0-3.8,1.34-7.03,4.03-9.7,2.69-2.66,5.93-3.99,9.74-3.99h48.97c3.86,0,7.14,1.33,9.86,3.99ZM772.39,344.26h-37.15v26.15h37.15v-26.15Z"/>
    <path class="cls-1" d="M893.38,335.3c2.66,2.66,3.99,5.89,3.99,9.69v38.35h-19.74v-39.11h-18.76v39.11h-19.69v-39.11h-18.76v39.11h-19.69v-52.03h83.03c3.75,0,6.95,1.33,9.61,3.99Z"/>
  </g>
</svg>